<svg width="162" height="160" viewBox="0 0 162 160" fill="none" xmlns="http://www.w3.org/2000/svg">
<ellipse cx="80.6376" cy="80" rx="80.6376" ry="80" fill="url(#paint0_linear_6_5)"/>
<ellipse cx="80.9254" cy="79.7145" rx="71.1339" ry="70.5714" fill="#C4C4C4"/>
<path d="M21.7354 64.6328V90.2266H18.3428V64.6328H21.7354ZM37.1865 64.6328L26.5518 76.5684L20.5752 82.7734L20.0127 79.1523L24.5127 74.1953L33.1084 64.6328H37.1865ZM33.917 90.2266L24.4424 77.7461L26.4639 75.0566L37.96 90.2266H33.917ZM43.708 74.1953V90.2266H40.4561V71.207H43.6201L43.708 74.1953ZM49.6494 71.1016L49.6318 74.125C49.3623 74.0664 49.1045 74.0312 48.8584 74.0195C48.624 73.9961 48.3545 73.9844 48.0498 73.9844C47.2998 73.9844 46.6377 74.1016 46.0635 74.3359C45.4893 74.5703 45.0029 74.8984 44.6045 75.3203C44.2061 75.7422 43.8896 76.2461 43.6553 76.832C43.4326 77.4062 43.2861 78.0391 43.2158 78.7305L42.3018 79.2578C42.3018 78.1094 42.4131 77.0312 42.6357 76.0234C42.8701 75.0156 43.2275 74.125 43.708 73.3516C44.1885 72.5664 44.7979 71.957 45.5361 71.5234C46.2861 71.0781 47.1768 70.8555 48.208 70.8555C48.4424 70.8555 48.7119 70.8848 49.0166 70.9434C49.3213 70.9902 49.5322 71.043 49.6494 71.1016ZM56.1885 71.207V90.2266H52.9189V71.207H56.1885ZM52.6729 66.1621C52.6729 65.6348 52.8311 65.1895 53.1475 64.8262C53.4756 64.4629 53.9561 64.2812 54.5889 64.2812C55.21 64.2812 55.6846 64.4629 56.0127 64.8262C56.3525 65.1895 56.5225 65.6348 56.5225 66.1621C56.5225 66.666 56.3525 67.0996 56.0127 67.4629C55.6846 67.8145 55.21 67.9902 54.5889 67.9902C53.9561 67.9902 53.4756 67.8145 53.1475 67.4629C52.8311 67.0996 52.6729 66.666 52.6729 66.1621ZM72.4834 85.1816C72.4834 84.7129 72.3779 84.2793 72.167 83.8809C71.9678 83.4707 71.5518 83.1016 70.9189 82.7734C70.2979 82.4336 69.3604 82.1406 68.1064 81.8945C67.0518 81.6719 66.0967 81.4082 65.2412 81.1035C64.3975 80.7988 63.6768 80.4297 63.0791 79.9961C62.4932 79.5625 62.042 79.0527 61.7256 78.4668C61.4092 77.8809 61.251 77.1953 61.251 76.4102C61.251 75.6602 61.415 74.9512 61.7432 74.2832C62.083 73.6152 62.5576 73.0234 63.167 72.5078C63.7881 71.9922 64.5322 71.5879 65.3994 71.2949C66.2666 71.002 67.2334 70.8555 68.2998 70.8555C69.8232 70.8555 71.124 71.125 72.2021 71.6641C73.2803 72.2031 74.1064 72.9238 74.6807 73.8262C75.2549 74.7168 75.542 75.707 75.542 76.7969H72.29C72.29 76.2695 72.1318 75.7598 71.8154 75.2676C71.5107 74.7637 71.0596 74.3477 70.4619 74.0195C69.876 73.6914 69.1553 73.5273 68.2998 73.5273C67.3975 73.5273 66.665 73.668 66.1025 73.9492C65.5518 74.2188 65.1475 74.5645 64.8896 74.9863C64.6436 75.4082 64.5205 75.8535 64.5205 76.3223C64.5205 76.6738 64.5791 76.9902 64.6963 77.2715C64.8252 77.541 65.0479 77.793 65.3643 78.0273C65.6807 78.25 66.126 78.4609 66.7002 78.6602C67.2744 78.8594 68.0068 79.0586 68.8975 79.2578C70.4561 79.6094 71.7393 80.0312 72.7471 80.5234C73.7549 81.0156 74.5049 81.6191 74.9971 82.334C75.4893 83.0488 75.7354 83.916 75.7354 84.9355C75.7354 85.7676 75.5596 86.5293 75.208 87.2207C74.8682 87.9121 74.3701 88.5098 73.7139 89.0137C73.0693 89.5059 72.2959 89.8926 71.3936 90.1738C70.5029 90.4434 69.501 90.5781 68.3877 90.5781C66.7119 90.5781 65.2939 90.2793 64.1338 89.6816C62.9736 89.084 62.0947 88.3105 61.4971 87.3613C60.8994 86.4121 60.6006 85.4102 60.6006 84.3555H63.8701C63.917 85.2461 64.1748 85.9551 64.6436 86.4824C65.1123 86.998 65.6865 87.3672 66.3662 87.5898C67.0459 87.8008 67.7197 87.9062 68.3877 87.9062C69.2783 87.9062 70.0225 87.7891 70.6201 87.5547C71.2295 87.3203 71.6924 86.998 72.0088 86.5879C72.3252 86.1777 72.4834 85.709 72.4834 85.1816ZM83.2588 63.2266V90.2266H80.0068V63.2266H83.2588ZM82.4854 79.9961L81.1318 79.9434C81.1436 78.6426 81.3369 77.4414 81.7119 76.3398C82.0869 75.2266 82.6143 74.2598 83.2939 73.4395C83.9736 72.6191 84.7822 71.9863 85.7197 71.541C86.6689 71.084 87.7178 70.8555 88.8662 70.8555C89.8037 70.8555 90.6475 70.9844 91.3975 71.2422C92.1475 71.4883 92.7861 71.8867 93.3135 72.4375C93.8525 72.9883 94.2627 73.7031 94.5439 74.582C94.8252 75.4492 94.9658 76.5098 94.9658 77.7637V90.2266H91.6963V77.7285C91.6963 76.7324 91.5498 75.9355 91.2568 75.3379C90.9639 74.7285 90.5361 74.2891 89.9736 74.0195C89.4111 73.7383 88.7197 73.5977 87.8994 73.5977C87.0908 73.5977 86.3525 73.7676 85.6846 74.1074C85.0283 74.4473 84.46 74.916 83.9795 75.5137C83.5107 76.1113 83.1416 76.7969 82.8721 77.5703C82.6143 78.332 82.4854 79.1406 82.4854 79.9961ZM103.087 75.2676V90.2266H99.835V71.207H102.911L103.087 75.2676ZM102.313 79.9961L100.96 79.9434C100.972 78.6426 101.165 77.4414 101.54 76.3398C101.915 75.2266 102.442 74.2598 103.122 73.4395C103.802 72.6191 104.61 71.9863 105.548 71.541C106.497 71.084 107.546 70.8555 108.694 70.8555C109.632 70.8555 110.476 70.9844 111.226 71.2422C111.976 71.4883 112.614 71.8867 113.142 72.4375C113.681 72.9883 114.091 73.7031 114.372 74.582C114.653 75.4492 114.794 76.5098 114.794 77.7637V90.2266H111.524V77.7285C111.524 76.7324 111.378 75.9355 111.085 75.3379C110.792 74.7285 110.364 74.2891 109.802 74.0195C109.239 73.7383 108.548 73.5977 107.728 73.5977C106.919 73.5977 106.181 73.7676 105.513 74.1074C104.856 74.4473 104.288 74.916 103.808 75.5137C103.339 76.1113 102.97 76.7969 102.7 77.5703C102.442 78.332 102.313 79.1406 102.313 79.9961ZM130.948 86.9746V77.1836C130.948 76.4336 130.796 75.7832 130.491 75.2324C130.198 74.6699 129.753 74.2363 129.155 73.9316C128.558 73.627 127.819 73.4746 126.94 73.4746C126.12 73.4746 125.399 73.6152 124.778 73.8965C124.169 74.1777 123.688 74.5469 123.337 75.0039C122.997 75.4609 122.827 75.9531 122.827 76.4805H119.575C119.575 75.8008 119.751 75.127 120.103 74.459C120.454 73.791 120.958 73.1875 121.614 72.6484C122.282 72.0977 123.079 71.6641 124.005 71.3477C124.942 71.0195 125.985 70.8555 127.134 70.8555C128.517 70.8555 129.735 71.0898 130.79 71.5586C131.856 72.0273 132.688 72.7363 133.286 73.6855C133.896 74.623 134.2 75.8008 134.2 77.2188V86.0781C134.2 86.7109 134.253 87.3848 134.358 88.0996C134.476 88.8145 134.646 89.4297 134.868 89.9453V90.2266H131.476C131.312 89.8516 131.183 89.3535 131.089 88.7324C130.995 88.0996 130.948 87.5137 130.948 86.9746ZM131.511 78.6953L131.546 80.9805H128.259C127.333 80.9805 126.507 81.0566 125.78 81.209C125.054 81.3496 124.444 81.5664 123.952 81.8594C123.46 82.1523 123.085 82.5215 122.827 82.9668C122.569 83.4004 122.44 83.9102 122.44 84.4961C122.44 85.0938 122.575 85.6387 122.845 86.1309C123.114 86.623 123.519 87.0156 124.058 87.3086C124.608 87.5898 125.282 87.7305 126.079 87.7305C127.075 87.7305 127.954 87.5195 128.716 87.0977C129.478 86.6758 130.081 86.1602 130.526 85.5508C130.983 84.9414 131.229 84.3496 131.265 83.7754L132.653 85.3398C132.571 85.832 132.349 86.377 131.985 86.9746C131.622 87.5723 131.136 88.1465 130.526 88.6973C129.929 89.2363 129.214 89.6875 128.382 90.0508C127.562 90.4023 126.636 90.5781 125.604 90.5781C124.315 90.5781 123.185 90.3262 122.212 89.8223C121.251 89.3184 120.501 88.6445 119.962 87.8008C119.435 86.9453 119.171 85.9902 119.171 84.9355C119.171 83.916 119.37 83.0195 119.769 82.2461C120.167 81.4609 120.741 80.8105 121.491 80.2949C122.241 79.7676 123.144 79.3691 124.198 79.0996C125.253 78.8301 126.431 78.6953 127.731 78.6953H131.511Z" fill="black"/>
<defs>
<linearGradient id="paint0_linear_6_5" x1="80.6376" y1="0" x2="80.6376" y2="160" gradientUnits="userSpaceOnUse">
<stop stop-color="#8F4DB2"/>
<stop offset="1" stop-color="#AE2B7B" stop-opacity="0.63"/>
</linearGradient>
</defs>
</svg>
